<svg width="23" height="26" fill="none" xmlns="http://www.w3.org/2000/svg"><path d="M3.38 16.626A1 1 0 014.305 16h14.388a1 1 0 01.927.626l2.825 7A1 1 0 0121.517 25H1.482a1 1 0 01-.928-1.374l2.825-7z" fill="url(#paint0_linear)" fill-opacity=".6"/><path d="M11.5 0C7.36 0 4 3.324 4 7.418c0 4.418 4.912 10.58 6.786 12.77a.933.933 0 001.428 0C14.088 17.999 19 11.837 19 7.419 19 3.324 15.64 0 11.5 0zm0 10.676c-1.825 0-3.294-1.453-3.294-3.258S9.676 4.16 11.5 4.16c1.825 0 3.294 1.453 3.294 3.258s-1.491 3.258-3.294 3.258z" fill="url(#paint1_linear)"/><defs><linearGradient id="paint0_linear" x1="3.632" y1="26.956" x2=".543" y2="16.954" gradientUnits="userSpaceOnUse"><stop stop-color="#505050"/><stop offset="1" stop-color="#333"/></linearGradient><linearGradient id="paint1_linear" x1="4" y1="21" x2="-7.431" y2="5.879" gradientUnits="userSpaceOnUse"><stop stop-color="#505050"/><stop offset="1" stop-color="#333"/></linearGradient></defs></svg>