<svg width="15" height="17" fill="none" xmlns="http://www.w3.org/2000/svg"><mask id="a" maskUnits="userSpaceOnUse" x="0" y="0" width="15" height="17"><path fill="#C4C4C4" d="M0 0h15v17H0z"/></mask><g mask="url(#a)"><path d="M12.727 6.834c-.179.05-.293.2-.309.383-.065 1.048-.586 1.996-1.417 2.562.7-3.627-1.125-7.27-4.53-8.75a.46.46 0 00-.39.033.414.414 0 00-.18.35c0 1.613-1.14 2.977-2.33 4.391-1.205 1.43-2.443 2.894-2.557 4.724A5.935 5.935 0 003.669 15.9c.147.1.326.083.473-.016.13-.1.195-.283.13-.45a4.483 4.483 0 01.163-3.193 4.23 4.23 0 00.782 2.129A3.977 3.977 0 008.427 16c.114 0 .244 0 .358-.017 1.988-.232 3.698-1.447 4.594-3.277a6.02 6.02 0 00-.195-5.689c-.098-.15-.294-.232-.457-.183z" fill="#FF781C"/></g></svg>