<svg width="13" height="18" fill="none" xmlns="http://www.w3.org/2000/svg"><path d="M6.5 0C2.912 0 0 2.85 0 6.358 0 11.038 6.5 18 6.5 18S13 11.038 13 6.358C13 2.85 10.088 0 6.5 0zm0 9.15c-1.582 0-2.855-1.244-2.855-2.792 0-1.547 1.273-2.792 2.855-2.792s2.855 1.245 2.855 2.792c0 1.548-1.293 2.793-2.855 2.793z" fill="#FF781C"/><path d="M6.5 0C2.912 0 0 2.85 0 6.358 0 11.038 6.5 18 6.5 18S13 11.038 13 6.358C13 2.85 10.088 0 6.5 0zm0 9.15c-1.582 0-2.855-1.244-2.855-2.792 0-1.547 1.273-2.792 2.855-2.792s2.855 1.245 2.855 2.792c0 1.548-1.293 2.793-2.855 2.793z" fill="#FF781C"/></svg>